<svg xmlns="http://www.w3.org/2000/svg" viewBox="0 0 390 266" width="390" height="266" role="img" aria-labelledby="t d"><title id="t">Contributions</title><desc id="d">7,642 contributions in the last year; busiest week: 675 in the week of Sep 27; 502 stars; 74 pull requests; 3 issues.</desc><defs><radialGradient id="hn"><stop offset="0" stop-color="#9fbcff" stop-opacity=".7"/><stop offset=".16" stop-color="#9fbcff" stop-opacity=".36"/><stop offset=".42" stop-color="#9fbcff" stop-opacity=".11"/><stop offset="1" stop-color="#9fbcff" stop-opacity="0"/></radialGradient><radialGradient id="cn"><stop offset=".5" stop-color="#ffffff"/><stop offset="1" stop-color="#9fbcff"/></radialGradient><linearGradient id="sn" x1="0" y1="0" x2="1" y2="0"><stop offset="0" stop-color="#9fbcff" stop-opacity="0"/><stop offset=".5" stop-color="#ffffff" stop-opacity=".95"/><stop offset="1" stop-color="#9fbcff" stop-opacity="0"/></linearGradient><linearGradient id="vn" x1="0" y1="0" x2="0" y2="1"><stop offset="0" stop-color="#9fbcff" stop-opacity="0"/><stop offset=".5" stop-color="#ffffff" stop-opacity=".95"/><stop offset="1" stop-color="#9fbcff" stop-opacity="0"/></linearGradient><radialGradient id="hy"><stop offset="0" stop-color="#fff3dc" stop-opacity=".7"/><stop offset=".16" stop-color="#fff3dc" stop-opacity=".36"/><stop offset=".42" stop-color="#fff3dc" stop-opacity=".11"/><stop offset="1" stop-color="#fff3dc" stop-opacity="0"/></radialGradient><radialGradient id="cy"><stop offset=".5" stop-color="#ffffff"/><stop offset="1" stop-color="#fff3dc"/></radialGradient><linearGradient id="sy" x1="0" y1="0" x2="1" y2="0"><stop offset="0" stop-color="#fff3dc" stop-opacity="0"/><stop offset=".5" stop-color="#ffffff" stop-opacity=".95"/><stop offset="1" stop-color="#fff3dc" stop-opacity="0"/></linearGradient><linearGradient id="vy" x1="0" y1="0" x2="0" y2="1"><stop offset="0" stop-color="#fff3dc" stop-opacity="0"/><stop offset=".5" stop-color="#ffffff" stop-opacity=".95"/><stop offset="1" stop-color="#fff3dc" stop-opacity="0"/></linearGradient><path id="cv" d="M24 223.1C25.1 222.9 28.4 222.5 30.6 222C32.8 221.5 35 220.3 37.2 220C39.3 219.7 41.5 220.2 43.7 220.2C45.9 220.2 48.1 220.5 50.3 220.2C52.5 219.9 54.7 219 56.9 218.5C59.1 217.9 61.3 217.5 63.5 216.7C65.7 215.9 67.8 214.6 70 213.7C72.2 212.9 74.4 212.2 76.6 211.7C78.8 211.2 81 210.5 83.2 210.6C85.4 210.8 87.6 212.1 89.8 212.7C92 213.2 94.2 213.6 96.3 214C98.5 214.4 100.7 215.5 102.9 215.2C105.1 215 107.3 214 109.5 212.7C111.7 211.5 113.9 209 116.1 207.7C118.3 206.5 120.5 206.4 122.7 205.4C124.8 204.4 127 202.1 129.2 201.7C131.4 201.2 133.6 202.1 135.8 202.5C138 202.9 140.2 203.4 142.4 204.1C144.6 204.8 146.8 206.2 149 206.5C151.2 206.9 153.3 205.7 155.5 206.3C157.7 206.9 159.9 209.6 162.1 210.2C164.3 210.8 166.5 210.3 168.7 210.1C170.9 209.9 173.1 209.2 175.3 209C177.5 208.9 179.7 209.1 181.8 209.2C184 209.4 186.2 210.2 188.4 210.1C190.6 209.9 192.8 209.4 195 208.3C197.2 207.2 199.4 204.5 201.6 203.6C203.8 202.8 206 203.5 208.2 203.3C210.3 203.1 212.5 202.2 214.7 202.2C216.9 202.2 219.1 205 221.3 203.3C223.5 201.7 225.7 193.6 227.9 192.5C230.1 191.3 232.3 195.6 234.5 196.3C236.7 197 238.8 197.2 241 196.8C243.2 196.4 245.4 195.3 247.6 194C249.8 192.7 252 188.6 254.2 189C256.4 189.4 258.6 196.3 260.8 196.4C263 196.5 265.2 191.3 267.3 189.6C269.5 187.9 271.7 186.6 273.9 186.3C276.1 186 278.3 187.1 280.5 187.8C282.7 188.4 284.9 188.9 287.1 190.1C289.3 191.4 291.5 193.3 293.7 195.1C295.8 197 298 199.6 300.2 201.3C302.4 203 304.6 204.2 306.8 205.4C309 206.6 311.2 208.8 313.4 208.6C315.6 208.4 317.8 207.2 320 204.2C322.2 201.1 324.3 193.8 326.5 190.3C328.7 186.8 330.9 186.1 333.1 183C335.3 179.9 337.5 176.8 339.7 171.7C341.9 166.7 344.1 155.3 346.3 152.8C348.5 150.2 350.7 155.4 352.8 156.4C355 157.4 357.2 158.6 359.4 158.8C361.6 159 364.9 157.6 366 157.3" pathLength="1" fill="none"/><linearGradient id="ws" x1="0" y1="0" x2="0" y2="1"><stop offset="0" stop-color="#eef1f6" stop-opacity=".2"/><stop offset="1" stop-color="#eef1f6" stop-opacity="0"/></linearGradient><path id="l37" d="M97 0q21-50 39-92 17-42 36-86 20-43 48-99 27-56 68-133 41-76 101-185h-334v-65h401v19q-47 90-98 193-51 103-95 216-44 113-71 232z"/><path id="l2c" d="M20 197l70-278h91v13l-146 265z"/><path id="l36" d="M254 10q-62 0-110-32-48-31-75-86-27-56-27-126 0-105 45-192 45-87 128-150 83-62 198-94v29q-123 39-197 127-73 87-89 208 27-38 67-60 41-23 92-23 54 0 94 25 39 25 60 68 22 42 22 96 0 53-23 101-23 48-69 79-47 30-116 30zM123-243q0 111 39 162 40 51 95 51 42 0 70-21 28-21 43-55 14-35 14-74 0-151-129-151-42 0-77 20-34 20-54 53-1 7-1 15z"/><path id="l34" d="M195 0v-20l89-30v-143h-280v-18l334-449h17v412h119v55h-119v143l79 30v20zM86-248h198v-275z"/><path id="l32" d="M54 0v-25q84-99 140-167 55-67 88-112 32-44 48-75 15-31 20-57 5-25 5-55 0-63-33-99-32-35-89-35-34 0-63 11-29 11-50 29v98h-50q-17 0-24-7-6-6-6-25 0-25 17-51 17-27 47-50 30-22 68-36 38-14 80-14 55 0 96 23 42 23 64 63 23 41 23 91 0 33-7 61-8 27-27 56-19 30-52 70-33 39-84 96-51 58-122 142h249l42-98h18l-10 166z"/><path id="i63" d="M380-140q-43 76-87 113-44 37-95 37-72 0-110-44-38-43-38-126 0-53 21-106 21-52 57-96 36-45 82-72 46-26 97-26 32 0 53 14 22 13 34 31 11 18 11 31 0 17-14 25l-36 23-56-86q-31 0-62 18-31 19-57 50-25 32-40 72-15 40-15 83 0 70 25 109 24 38 79 38 17 0 38-6 21-7 46-28 25-20 55-62h2z"/><path id="i6f" d="M220 10q-87 0-128-54-42-55-42-140 0-47 17-96 17-48 49-89 32-41 76-66 44-25 97-25 87 0 129 54 41 54 41 140 0 45-17 94-16 48-48 90-31 41-75 66-44 26-99 26zM231-28q44 0 75-34 32-33 49-88 17-56 17-122 0-74-20-112-19-39-72-39-42 0-74 31-33 30-51 84-18 54-18 127 0 74 20 113 20 40 74 40z"/><path id="i6e" d="M43 0l69-389-78-35v-6l142-30h3v105h4q36-39 63-62 26-23 52-33 25-10 57-10 49 0 75 40 27 40 15 108l-35 193q-5 30-2 43 4 13 17 13 17 0 37-19 20-18 38-56l13 6q-29 75-63 108-33 34-68 34-35 0-48-27-13-27-5-72l39-220q5-35-8-63-14-27-58-27-22 0-46 15-23 15-45 36-22 20-39 39l-53 309z"/><path id="i74" d="M131 10q-33 0-50-22-17-21-17-58 0-8 2-18 1-10 2-20l53-298h-74v-6l85-38 86-110h6l-19 110h125v44h-133l-45 254q-2 13-3 24-1 10-1 18 0 24 8 34 8 10 21 10 23 0 49-26 27-26 49-75l13 6q-33 94-74 133-40 38-83 38z"/><path id="i72" d="M43 0l69-389-78-35v-6l141-30h3v123h4q30-51 50-77 21-27 38-36 16-10 34-10 20 0 34 10 14 11 14 23 0 9-4 18l-18 46-67-24q-19 9-41 35-21 27-56 84l-47 268z"/><path id="i69" d="M196-585q-23 0-40-17-17-17-17-40 0-23 17-40 17-17 40-17 23 0 40 17 17 17 17 40 0 23-17 40-17 17-40 17zM125 10q-35 0-48-27-13-27-5-72l53-301-87-34v-6l173-30h3l-61 341q-5 30-1 43 3 13 16 13 17 0 37-19 20-18 38-56l13 6q-29 75-62 108-34 34-69 34z"/><path id="i62" d="M194 10q-26 0-50-6-24-7-42-18l-51 24h-6l120-690-77-34v-6l163-30h3l-72 415h5q21-31 46-59 25-29 55-48 30-18 66-18 40 0 64 34 25 35 25 104 0 62-19 121-20 59-54 107-35 48-80 76-45 28-96 28zM307-394q-28 0-64 30-36 29-70 80l-35 202q22 29 41 41 19 12 44 12 39 0 72-33 33-34 53-92 19-57 19-129 0-61-13-86-14-25-47-25z"/><path id="i75" d="M159 10q-37 0-61-29-23-29-23-79 0-10 1-20 2-10 3-20l45-251-78-35v-6l160-30h4l-52 306q-4 25-4 36 0 28 14 48 13 19 44 19 21 0 42-15 22-15 42-36 20-21 36-39l43-248-69-35v-6l152-30h4l-60 341q-5 30-2 43 4 13 19 13 17 0 37-19 20-18 38-56l13 6q-29 75-63 108-33 34-68 34-35 0-48-27-12-27-5-72l1-6h-3q-34 38-59 61-25 23-48 34-24 10-55 10z"/><path id="i73" d="M302-127q0 32-22 63-22 32-62 53-41 21-97 21-24 0-52-10-28-9-47-25-20-16-20-35 0-8 4-14 3-5 9-10l23-22 79 80q8 1 14 1 50 0 78-23 28-23 28-55 0-26-15-48-16-22-69-53-53-32-71-60-18-27-18-68 0-30 22-60 23-29 62-48 38-20 87-20 50 0 77 18 28 17 28 40 0 9-7 16l-23 25-76-66q-5 0-10 0-45 0-69 21-24 20-24 52 0 15 5 28 6 14 24 29 18 15 53 37 53 32 71 61 18 29 18 72z"/><path id="i68" d="M106 0h-76l119-678-78-35v-6l164-30h3l-69 394h2q35-39 61-62 27-23 52-33 26-10 58-10 49 0 76 40 26 40 14 108l-35 193q-5 30-1 43 3 13 16 13 17 0 37-19 20-18 38-56l13 6q-29 75-62 108-34 34-69 34-35 0-48-27-13-27-5-72l39-220q5-35-9-63-13-27-57-27-22 0-45 15-23 14-45 34-22 21-38 39z"/><path id="i65" d="M199 10q-76 0-113-42-36-43-36-116 0-59 20-114 19-56 54-100 34-45 80-72 45-26 98-26 50 0 76 23 25 23 25 54 0 34-24 63-24 28-83 52-60 23-168 41-2 20-2 42 0 61 26 97 26 36 82 36 33 0 65-18 32-19 66-59h2l10 8q-34 59-81 95-48 36-97 36zM275-425q-54 0-91 45-38 44-51 117 75-13 117-28 42-15 59-35 17-21 17-52 0-20-13-34-13-13-38-13z"/><path id="i6c" d="M101 10q-35 0-47-27-13-27-6-72l103-591-87-34v-6l173-30h3l-111 631q-5 30-1 43 3 13 16 13 17 0 37-19 20-18 38-56l13 6q-29 75-62 108-34 34-69 34z"/><path id="i61" d="M136 10q-40 0-64-34-25-35-25-104 0-62 19-121 20-59 54-107 35-48 80-76 45-28 96-28 25 0 48 6 23 6 41 16l35-22h25l-61 341q-5 30-2 43 4 13 17 13 17 0 37-19 20-18 38-56l13 6q-29 75-63 108-33 34-68 34-35 0-48-27-13-27-5-72l5-26h-4q-37 58-80 91-42 34-88 34zM123-167q0 56 13 83 12 28 47 28 24 0 48-16 24-16 46-41 22-25 39-51l37-206q-19-25-39-38-19-13-47-13-43 0-75 37-33 37-51 95-18 58-18 122z"/><path id="i79" d="M325-229q23-39 39-71 15-33 17-67l-56-47 27-33q11-13 24-13 22 0 42 24 19 25 19 55 0 24-17 57-16 34-55 96l-231 370q-31 49-64 74-34 24-61 24-43 0-43-44 0-11 4-22 4-10 10-19l83 11q14-8 25-18 10-11 22-29 12-18 31-49l47-76-86-386-85-32v-6l148-30h3l76 355h5z"/><path id="r35" d="M447-232q0 77-33 131-33 54-90 83-58 28-134 28-69 0-102-22-32-21-32-47 0-17 14-27l44-33 61 84q11 1 25 1 47 0 86-20 40-19 64-54 24-36 24-84 0-62-44-104-45-42-139-42-23 0-49 3-27 3-56 10l10-335h327v77h-277l-7 202q62-25 118-25 59 0 101 24 43 23 66 62 23 40 23 88z"/><path id="r30" d="M250 10q-103 0-160-92-57-91-57-248 0-98 27-174 28-77 77-122 49-44 113-44 104 0 160 91 57 91 57 249 0 97-28 174-28 77-77 122-48 44-112 44zM271-37q33 0 57-34 23-34 35-93 12-60 12-135 0-151-35-238-36-87-107-87-34 0-58 34-24 34-37 93-13 59-13 134 0 151 37 239 36 87 109 87z"/><path id="r32" d="M52 0v-25q87-100 143-167 56-67 87-112 32-44 46-75 15-31 18-57 4-25 4-55 0-61-30-95-31-35-81-35-32 0-59 11-27 10-48 28v101h-64q-16 0-22-7-7-8-7-27 0-28 19-55 19-28 51-50 32-23 71-36 40-14 81-14 55 0 97 24 42 23 66 63 23 40 23 90 0 33-8 61-8 27-27 56-18 29-50 68-33 38-82 92-50 55-119 134h235l50-97h16l-10 179z"/><path id="r37" d="M83 0q21-50 39-91 19-41 40-84 21-43 50-97 29-55 70-130 42-75 103-181h-333v-77h410v20q-35 69-75 148-40 79-78 163-38 84-69 167-30 84-45 162z"/><path id="r34" d="M193 0v-16l90-40v-137h-275v-20l340-447h20v400h119v67h-119v137l80 40v16zM103-260h180v-245z"/><path id="i70" d="M-27 230v-16l55-28 102-575-78-35v-6l142-30h3v125h4q38-58 80-91 42-34 88-34 40 0 65 35 24 35 24 103 0 62-20 121-19 59-54 107-34 48-79 76-45 28-96 28-19 0-37-4-18-3-33-9l-31 188 80 29v16zM322-394q-24 0-48 16-24 16-46 41-22 25-40 52l-35 203q19 26 37 40 19 13 48 13 43 0 76-37 32-37 50-95 18-58 18-122 0-56-12-83-13-28-48-28z"/><path id="i71" d="M183 230v-16l69-27 55-302h-3q-37 58-80 91-42 34-88 34-40 0-64-34-25-35-25-104 0-62 19-121 20-59 54-107 35-48 80-76 45-28 96-28 26 0 50 6 24 7 42 18l51-24h6l-117 644 70 30v16zM123-167q0 57 13 84 12 27 47 27 24 0 47-16 24-15 46-40 22-24 39-51l37-206q-19-25-38-39-18-13-47-13-43 0-75 37-33 37-51 95-18 58-18 122z"/><path id="r33" d="M244 10q-60 0-108-19-47-19-75-49-28-30-28-63 0-20 7-27 6-7 22-7h64v88q45 32 120 32 63 0 98-38 35-38 35-99 0-68-36-108-36-39-130-39h-59v-44h27q71 0 117-37 47-38 47-105 0-63-27-91-28-29-78-29-20 0-44 6-25 6-50 25v102h-64q-16 0-22-8-7-7-7-26 0-33 27-66 28-34 75-56 47-22 107-22 52 0 92 21 41 21 64 57 24 35 24 80 0 51-39 94-39 42-106 60 90 14 135 63 45 49 45 120 0 49-32 91-32 42-85 68-52 26-116 26z"/><path id="r61" d="M156 10q-47 0-78-28-31-27-31-76 0-49 37-85 36-36 122-56l95-22v-73q0-35-25-60-26-24-61-24-14 0-28 3-14 3-37 14v92h-64q-16 0-22-7-7-8-7-27 0-28 24-56 24-28 65-47 42-18 94-18 72 0 106 30 35 29 35 79v284q7 7 21 12 13 5 35 5h38l3 2v3q-12 22-36 39-23 16-57 16-31 0-51-16-19-17-27-44h-6q-26 25-65 42-38 18-80 18zM125-114q0 62 75 62 24 0 48-5 23-5 53-18v-148q-80 15-117 31-37 17-48 36-11 19-11 42z"/><path id="r77" d="M201 0l-157-403-67-31v-16h239v16l-82 30v6l104 277h4l142-329h21l142 326h4l101-268v-6l-72-36v-16h196v16l-74 35-167 399h-21l-144-326-148 326z"/><path id="r65" d="M259 10q-97 0-153-59-56-59-56-156 0-75 30-133 29-57 78-90 49-32 105-32 79 0 125 55 45 55 45 158l-5 5h-299q1 46 18 86 17 41 55 66 37 25 100 25 55 0 129-40h3v10q-23 43-68 74-46 31-107 31zM247-416q-48 0-79 34-30 33-37 94h226q-11-68-39-98-27-30-71-30z"/><path id="r6b" d="M48 0v-16l63-32v-588l-60-52v-7l134-55h6v495l161-137v-6l-49-36v-16h190v16l-64 35-165 127 202 222 64 34v16h-132l-38-52-169-188v195l71 29v16z"/><path id="r36" d="M255 10q-65 0-115-32-49-32-76-88-27-55-27-124 0-105 47-192 46-86 132-148 86-63 204-96v29q-122 39-196 127-73 88-88 208 27-37 67-60 40-22 92-22 54 0 93 25 40 25 62 69 21 43 21 98 0 51-24 98-24 47-71 78-48 30-121 30zM132-243q0 74 18 120 17 46 46 67 28 20 61 20 41 0 68-20 27-20 41-52 13-31 13-66 0-147-123-147-39 0-72 18-32 18-52 49 0 5 0 11z"/><path id="r69" d="M154-581q-26 0-43-17-17-18-17-43 0-26 17-43 17-17 43-17 26 0 43 17 17 17 17 43 0 25-17 43-17 17-43 17zM54 0v-16l63-32v-298l-60-52v-7l134-55h6v412l63 32v16z"/><path id="r6e" d="M48 0v-16l63-32v-298l-60-52v-7l124-55h6l9 74h5q38-38 73-56 36-18 79-18 59 0 97 30 37 29 37 87v295l63 32v16h-214v-16l71-32v-248q0-44-27-67-28-23-72-23-27 0-60 9-32 9-51 26v303l71 32v16z"/><path id="r74" d="M208 10q-44 0-76-26-32-26-32-73v-314h-82v-6l85-41 71-110h6v110h132v47h-132v297q0 25 23 38 23 12 54 12 19 0 35-2 17-2 29-5h3v10q-10 22-40 43-29 20-76 20z"/><path id="r68" d="M48 0v-16l63-32v-588l-60-52v-7l134-55h6v364h4q38-38 73-56 36-18 79-18 59 0 97 30 37 29 37 87v295l63 32v16h-214v-16l71-29v-251q0-44-27-67-28-23-72-23-27 0-60 9-32 9-51 26v306l71 29v16z"/><path id="r6f" d="M270 10q-65 0-115-31-50-31-77-84-28-53-28-120 0-67 28-120 27-53 77-84 50-31 115-31 66 0 116 31 49 31 76 84 28 53 28 120 0 67-28 120-27 53-76 84-50 31-116 31zM284-33q41 0 66-25 26-25 38-64 12-40 12-83 0-53-14-102-15-49-46-80-31-31-82-31-41 0-67 25-26 25-39 64-12 39-12 83 0 53 15 102 15 49 47 80 31 31 82 31z"/><path id="r66" d="M54 0v-16l63-32v-355h-78v-47h78v-33q0-39 19-85 19-45 52-86 34-42 76-68 43-27 90-27 29 0 41 9 12 10 12 23 0 4-1 11-1 6-3 12l-10 37-123-28q-32 19-52 68-21 49-21 112v55h132v47h-132v357l71 30v16z"/><path id="r53" d="M264 10q-61 0-104-12-43-11-90-34l-10-164h16l49 106q36 30 70 44 34 13 69 13 59 0 92-31 34-31 34-84 0-44-20-69-19-25-56-45-36-19-86-44-47-24-80-47-33-23-50-53-17-31-17-77 0-34 17-67 16-32 44-58 29-27 64-42 36-16 74-16 47 0 86 11 39 11 79 31l10 160h-16l-46-105q-35-26-61-37-26-12-60-12-44 0-72 30-29 30-29 74 0 51 31 80 31 28 97 60 61 29 100 55 39 26 58 59 19 33 19 84 0 47-20 82-20 36-52 60-31 24-68 36-37 12-72 12z"/><path id="r70" d="M48 230v-16l63-32v-528l-60-52v-7l124-55h6l8 61h7q38-32 74-47 35-14 75-14 51 0 90 26 39 26 61 74 23 47 23 113 0 82-31 139-30 58-82 88-51 30-114 30-56 0-101-10v182l71 32v16zM290-391q-24 0-50 7-25 8-49 23v281q30 24 61 33 31 9 69 9 48 0 83-40 35-41 35-136 0-62-20-101-20-39-54-57-34-19-75-19z"/><path id="r4e" d="M60 0v-16l80-40v-546l-79-42v-16h147l382 480v-426l-100-38v-16h249v16l-79 39v610h-37l-413-521v461l100 39v16z"/><path id="r44" d="M65 0v-16l80-40v-548l-80-40v-16h293q111 0 188 39 78 39 118 107 41 68 41 154 0 78-27 144-26 65-74 114-48 48-112 75-65 27-141 27zM335-605h-100v550h115q81 0 139-33 58-34 89-96 32-61 32-145 0-84-32-146-32-62-94-96-61-34-149-34z"/><path id="r4a" d="M54 174q-19 0-30-9-12-9-12-23 0-5 4-22l7-31 86 15q41-45 41-155v-553l-80-40v-16h250v16l-80 40v364q0 130-22 214-21 83-59 127-38 43-60 58-22 15-45 15z"/><path id="r46" d="M65 0v-16l80-40v-548l-80-40v-16h479v172h-16l-62-117h-231v237h160l50-83h16v219h-16l-50-81h-160v257l90 40v16z"/><path id="r4d" d="M60 0v-16l79-40 21-547-86-41v-16h185l231 532 230-532h176v16l-84 40 17 548 70 40v16h-230v-16l74-39-10-493-239 553h-45l-235-546-13 486 81 39v16z"/><path id="r41" d="M33 0v-16l64-33 256-616h45l252 613 67 36v16h-248v-16l88-34-75-185h-243l-74 185 84 34v16zM262-290h198l-99-246z"/><path id="r4f" d="M403 10q-72 0-133-26-60-25-105-70-45-46-70-108-25-63-25-136 0-74 25-136 25-62 70-108 45-45 105-70 61-26 133-26 72 0 133 26 61 25 106 70 45 46 70 108 25 62 25 136 0 73-25 136-25 62-70 108-45 45-106 70-61 26-133 26zM424-40q64 0 112-32 49-32 76-90 28-58 28-137 0-98-34-170-34-72-92-112-57-40-128-40-64 0-114 31-49 32-77 90-28 58-28 137 0 97 35 170 34 73 92 113 59 40 130 40z"/><style>@media (prefers-reduced-motion: no-preference){.soft{animation:soft 1.2s ease-out both}@keyframes soft{from{opacity:0}}.ldraw{stroke-dasharray:1;animation:ldraw 2s cubic-bezier(.5,0,.2,1) both}@keyframes ldraw{from{stroke-dashoffset:1}}.rise{animation:rise .95s cubic-bezier(.2,.9,.3,1.1) both}@keyframes rise{from{transform:translateY(var(--d));opacity:0}}.comet{animation:comet var(--cy) linear var(--st) infinite}@keyframes comet{0%{stroke-dashoffset:var(--a);opacity:0}5%{opacity:var(--o)}40%{opacity:var(--o)}46%,100%{stroke-dashoffset:var(--b);opacity:0}}.pop{animation:pop .75s cubic-bezier(.2,1.5,.4,1) both}@keyframes pop{from{transform:scale(0);opacity:0}}.tw{animation:tw 3.2s ease-in-out infinite}@keyframes tw{50%{opacity:.4}}.spk{animation:spk 5s ease-in-out infinite}@keyframes spk{50%{opacity:.3}}}</style></defs><rect width="390" height="266" rx="10" fill="#0b1020"/><g transform="translate(24 48) scale(.032)" fill="#eef1f6"><use href="#l37"/><use href="#l2c" x="500"/><use href="#l36" x="740"/><use href="#l34" x="1240"/><use href="#l32" x="1740"/></g><g transform="translate(105.7 48) scale(.0145)" fill="#9ca0a9"><use href="#i63"/><use href="#i6f" x="427"/><use href="#i6e" x="936"/><use href="#i74" x="1466"/><use href="#i72" x="1790"/><use href="#i69" x="2135"/><use href="#i62" x="2423"/><use href="#i75" x="2906"/><use href="#i74" x="3428"/><use href="#i69" x="3752"/><use href="#i6f" x="4040"/><use href="#i6e" x="4549"/><use href="#i73" x="5079"/><use href="#i69" x="5670"/><use href="#i6e" x="5958"/><use href="#i74" x="6726"/><use href="#i68" x="7040"/><use href="#i65" x="7547"/><use href="#i6c" x="8228"/><use href="#i61" x="8486"/><use href="#i73" x="8993"/><use href="#i74" x="9346"/><use href="#i79" x="9898"/><use href="#i65" x="10345"/><use href="#i61" x="10788"/><use href="#i72" x="11295"/></g><g transform="translate(24 80) scale(.017)" fill="#eef1f6"><use href="#r35"/><use href="#r30" x="500"/><use href="#r32" x="1000"/></g><g transform="translate(54.5 80) scale(.013)" fill="#9ca0a9"><use href="#i73"/><use href="#i74" x="353"/><use href="#i61" x="667"/><use href="#i72" x="1174"/><use href="#i73" x="1519"/></g><g transform="translate(92.8 80) scale(.017)" fill="#eef1f6"><use href="#r37"/><use href="#r34" x="500"/></g><g transform="translate(114.8 80) scale(.013)" fill="#9ca0a9"><use href="#i70"/><use href="#i75" x="498"/><use href="#i6c" x="1020"/><use href="#i6c" x="1278"/><use href="#i72" x="1774"/><use href="#i65" x="2099"/><use href="#i71" x="2542"/><use href="#i75" x="3015"/><use href="#i65" x="3537"/><use href="#i73" x="3980"/><use href="#i74" x="4333"/><use href="#i73" x="4647"/></g><g transform="translate(193.8 80) scale(.017)" fill="#eef1f6"><use href="#r33"/></g><g transform="translate(207.3 80) scale(.013)" fill="#9ca0a9"><use href="#i69"/><use href="#i73" x="288"/><use href="#i73" x="641"/><use href="#i75" x="994"/><use href="#i65" x="1516"/><use href="#i73" x="1959"/></g><path d="M24 184H366" stroke="#3d424f" stroke-dasharray="1 5"/><path d="M24 144H366" stroke="#3d424f" stroke-dasharray="1 5"/><path d="M24 224.5H366" stroke="#3d424f"/><path d="M24 223.1C25.1 222.9 28.4 222.5 30.6 222C32.8 221.5 35 220.3 37.2 220C39.3 219.7 41.5 220.2 43.7 220.2C45.9 220.2 48.1 220.5 50.3 220.2C52.5 219.9 54.7 219 56.9 218.5C59.1 217.9 61.3 217.5 63.5 216.7C65.7 215.9 67.8 214.6 70 213.7C72.2 212.9 74.4 212.2 76.6 211.7C78.8 211.2 81 210.5 83.2 210.6C85.4 210.8 87.6 212.1 89.8 212.7C92 213.2 94.2 213.6 96.3 214C98.5 214.4 100.7 215.5 102.9 215.2C105.1 215 107.3 214 109.5 212.7C111.7 211.5 113.9 209 116.1 207.7C118.3 206.5 120.5 206.4 122.7 205.4C124.8 204.4 127 202.1 129.2 201.7C131.4 201.2 133.6 202.1 135.8 202.5C138 202.9 140.2 203.4 142.4 204.1C144.6 204.8 146.8 206.2 149 206.5C151.2 206.9 153.3 205.7 155.5 206.3C157.7 206.9 159.9 209.6 162.1 210.2C164.3 210.8 166.5 210.3 168.7 210.1C170.9 209.9 173.1 209.2 175.3 209C177.5 208.9 179.7 209.1 181.8 209.2C184 209.4 186.2 210.2 188.4 210.1C190.6 209.9 192.8 209.4 195 208.3C197.2 207.2 199.4 204.5 201.6 203.6C203.8 202.8 206 203.5 208.2 203.3C210.3 203.1 212.5 202.2 214.7 202.2C216.9 202.2 219.1 205 221.3 203.3C223.5 201.7 225.7 193.6 227.9 192.5C230.1 191.3 232.3 195.6 234.5 196.3C236.7 197 238.8 197.2 241 196.8C243.2 196.4 245.4 195.3 247.6 194C249.8 192.7 252 188.6 254.2 189C256.4 189.4 258.6 196.3 260.8 196.4C263 196.5 265.2 191.3 267.3 189.6C269.5 187.9 271.7 186.6 273.9 186.3C276.1 186 278.3 187.1 280.5 187.8C282.7 188.4 284.9 188.9 287.1 190.1C289.3 191.4 291.5 193.3 293.7 195.1C295.8 197 298 199.6 300.2 201.3C302.4 203 304.6 204.2 306.8 205.4C309 206.6 311.2 208.8 313.4 208.6C315.6 208.4 317.8 207.2 320 204.2C322.2 201.1 324.3 193.8 326.5 190.3C328.7 186.8 330.9 186.1 333.1 183C335.3 179.9 337.5 176.8 339.7 171.7C341.9 166.7 344.1 155.3 346.3 152.8C348.5 150.2 350.7 155.4 352.8 156.4C355 157.4 357.2 158.6 359.4 158.8C361.6 159 364.9 157.6 366 157.3L366 224L24 224Z" fill="url(#ws)" class="soft" style="animation-delay:1.5s"/><use href="#cv" stroke="#eef1f6" stroke-width="6" stroke-opacity=".1" stroke-linecap="round" class="ldraw" style="animation-delay:.45s"/><use href="#cv" stroke="#eef1f6" stroke-width="1.6" stroke-opacity=".8" stroke-linecap="round" class="ldraw" style="animation-delay:.45s"/><g fill="#eef1f6" fill-opacity=".9"><circle cx="24" cy="223.2" r="1.7" class="rise" style="--d:.8px"/><circle cx="30.6" cy="224" r="1.7" class="rise" style="animation-delay:.02s;--d:0px"/><circle cx="37.2" cy="222.1" r="1.7" class="rise" style="animation-delay:.04s;--d:1.9px"/><circle cx="43.7" cy="218.7" r="1.7" class="rise" style="animation-delay:.07s;--d:5.3px"/><circle cx="50.3" cy="212.2" r="1.7" class="rise" style="animation-delay:.09s;--d:11.8px"/><circle cx="56.9" cy="224" r="1.7" class="rise" style="animation-delay:.11s;--d:0px"/><circle cx="63.5" cy="224" r="1.7" class="rise" style="animation-delay:.13s;--d:0px"/><circle cx="70" cy="213.4" r="1.7" class="rise" style="animation-delay:.15s;--d:10.6px"/><circle cx="76.6" cy="210.1" r="1.7" class="rise" style="animation-delay:.18s;--d:13.9px"/><circle cx="83.2" cy="197.1" r="1.7" class="rise" style="animation-delay:.2s;--d:26.9px"/><circle cx="89.8" cy="213.9" r="1.7" class="rise" style="animation-delay:.22s;--d:10.1px"/><circle cx="96.3" cy="218.6" r="1.7" class="rise" style="animation-delay:.24s;--d:5.4px"/><circle cx="102.9" cy="223.7" r="1.7" class="rise" style="animation-delay:.26s;--d:.3px"/><circle cx="109.5" cy="216.8" r="1.7" class="rise" style="animation-delay:.29s;--d:7.2px"/><circle cx="116.1" cy="203.2" r="1.7" class="rise" style="animation-delay:.31s;--d:20.8px"/><circle cx="122.7" cy="201.3" r="1.7" class="rise" style="animation-delay:.33s;--d:22.7px"/><circle cx="129.2" cy="193.8" r="1.7" class="rise" style="animation-delay:.35s;--d:30.2px"/><circle cx="135.8" cy="211.8" r="1.7" class="rise" style="animation-delay:.37s;--d:12.2px"/><circle cx="142.4" cy="198.2" r="1.7" class="rise" style="animation-delay:.4s;--d:25.8px"/><circle cx="149" cy="207.4" r="1.7" class="rise" style="animation-delay:.42s;--d:16.6px"/><circle cx="155.5" cy="209.3" r="1.7" class="rise" style="animation-delay:.44s;--d:14.7px"/><circle cx="162.1" cy="205.9" r="1.7" class="rise" style="animation-delay:.46s;--d:18.1px"/><circle cx="168.7" cy="210.9" r="1.7" class="rise" style="animation-delay:.48s;--d:13.1px"/><circle cx="175.3" cy="217.4" r="1.7" class="rise" style="animation-delay:.51s;--d:6.6px"/><circle cx="181.8" cy="206.9" r="1.7" class="rise" style="animation-delay:.53s;--d:17.1px"/><circle cx="188.4" cy="204" r="1.7" class="rise" style="animation-delay:.55s;--d:20px"/><circle cx="195" cy="207" r="1.7" class="rise" style="animation-delay:.57s;--d:17px"/><circle cx="201.6" cy="215" r="1.7" class="rise" style="animation-delay:.59s;--d:9px"/><circle cx="208.2" cy="208.5" r="1.7" class="rise" style="animation-delay:.62s;--d:15.5px"/><circle cx="214.7" cy="183.7" r="1.7" class="rise" style="animation-delay:.64s;--d:40.3px"/><circle cx="221.3" cy="202.2" r="1.7" class="rise" style="animation-delay:.66s;--d:21.8px"/><circle cx="227.9" cy="201.8" r="1.7" class="rise" style="animation-delay:.68s;--d:22.2px"/><circle cx="234.5" cy="220.5" r="1.7" class="rise" style="animation-delay:.7s;--d:3.5px"/><circle cx="241" cy="154.2" r="1.7" class="rise" style="animation-delay:.73s;--d:69.8px"/><circle cx="247.6" cy="202.9" r="1.7" class="rise" style="animation-delay:.75s;--d:21.1px"/><circle cx="254.2" cy="204.6" r="1.7" class="rise" style="animation-delay:.77s;--d:19.4px"/><circle cx="260.8" cy="187.5" r="1.7" class="rise" style="animation-delay:.79s;--d:36.5px"/><circle cx="267.3" cy="195.7" r="1.7" class="rise" style="animation-delay:.81s;--d:28.3px"/><circle cx="273.9" cy="191.4" r="1.7" class="rise" style="animation-delay:.84s;--d:32.6px"/><circle cx="280.5" cy="169" r="1.7" class="rise" style="animation-delay:.86s;--d:55px"/><circle cx="287.1" cy="187.8" r="1.7" class="rise" style="animation-delay:.88s;--d:36.2px"/><circle cx="293.7" cy="195" r="1.7" class="rise" style="animation-delay:.9s;--d:29px"/><circle cx="300.2" cy="207.5" r="1.7" class="rise" style="animation-delay:.92s;--d:16.5px"/><circle cx="306.8" cy="216.3" r="1.7" class="rise" style="animation-delay:.95s;--d:7.7px"/><circle cx="313.4" cy="199.7" r="1.7" class="rise" style="animation-delay:.97s;--d:24.3px"/><circle cx="320" cy="208.5" r="1.7" class="rise" style="animation-delay:.99s;--d:15.5px"/><circle cx="326.5" cy="210.9" r="1.7" class="rise" style="animation-delay:1.01s;--d:13.1px"/><circle cx="333.1" cy="185.6" r="1.7" class="rise" style="animation-delay:1.03s;--d:38.4px"/><circle cx="339.7" cy="146.9" r="1.7" class="rise" style="animation-delay:1.06s;--d:77.1px"/><circle cx="346.3" cy="163.2" r="1.7" class="rise" style="animation-delay:1.08s;--d:60.8px"/><circle cx="352.8" cy="152.2" r="1.7" class="rise" style="animation-delay:1.1s;--d:71.8px"/><circle cx="366" cy="203.8" r="1.7" class="rise" style="animation-delay:1.14s;--d:20.2px"/></g><use href="#cv" class="comet mo" opacity="0" style="--a:2.12;--b:1.12;--o:.55;--cy:12s;--st:3.4s" stroke="#9fbcff" stroke-width="1.6" stroke-linecap="round" stroke-dasharray=".06 2"/><use href="#cv" class="comet mo" opacity="0" style="--a:2.054;--b:1.054;--o:.5;--cy:12s;--st:3.4s" stroke="#9fbcff" stroke-width="2.6" stroke-linecap="round" stroke-dasharray=".027 2"/><use href="#cv" class="comet mo" opacity="0" style="--a:2.0005;--b:1.0005;--o:.16;--cy:12s;--st:3.4s" stroke="#9fbcff" stroke-width="15" stroke-linecap="round" stroke-dasharray=".0005 2"/><use href="#cv" class="comet mo" opacity="0" style="--a:2.0005;--b:1.0005;--o:.3;--cy:12s;--st:3.4s" stroke="#9fbcff" stroke-width="8" stroke-linecap="round" stroke-dasharray=".0005 2"/><use href="#cv" class="comet mo" opacity="0" style="--a:2.0005;--b:1.0005;--o:1;--cy:12s;--st:3.4s" stroke="#ffffff" stroke-width="3.6" stroke-linecap="round" stroke-dasharray=".0005 2"/><g transform="translate(24 179) scale(.0115)" fill="#9ca0a9"><use href="#r32"/><use href="#r35" x="500"/><use href="#r30" x="1000"/><use href="#r61" x="1750"/><use href="#r77" x="2489"/><use href="#r65" x="3242"/><use href="#r65" x="3726"/><use href="#r6b" x="4210"/></g><g transform="translate(24 139) scale(.0115)" fill="#9ca0a9"><use href="#r35"/><use href="#r30" x="500"/><use href="#r30" x="1000"/><use href="#r61" x="1750"/><use href="#r77" x="2489"/><use href="#r65" x="3242"/><use href="#r65" x="3726"/><use href="#r6b" x="4210"/></g><g transform="translate(359.4 116)"><g class="pop" style="animation-delay:1.32s"><circle r="11.5" fill="url(#hn)" class="tw"/><g class="spk"><path fill="url(#sn)" d="M-14.2 0Q0 -1.48 14.2 0Q0 1.48 -14.2 0Z"/><path fill="url(#vn)" d="M0 -14.2Q1.48 0 0 14.2Q-1.48 0 0 -14.2Z"/></g><circle r="2.1" fill="url(#cn)"/></g></g><g transform="translate(204.9 120) scale(.0125)" fill="#eef1f6" class="soft" style="animation-delay:1.62s"><use href="#r36"/><use href="#r37" x="500"/><use href="#r35" x="1000"/><use href="#r69" x="1750"/><use href="#r6e" x="2063"/><use href="#r74" x="2895"/><use href="#r68" x="3249"/><use href="#r65" x="3831"/><use href="#r77" x="4565"/><use href="#r65" x="5318"/><use href="#r65" x="5802"/><use href="#r6b" x="6286"/><use href="#r6f" x="7094"/><use href="#r66" x="7634"/><use href="#r53" x="8226"/><use href="#r65" x="8777"/><use href="#r70" x="9261"/><use href="#r32" x="10078"/><use href="#r37" x="10578"/></g><path d="M50.3 224v5" stroke="#9ca0a9"/><g transform="translate(45.7 244) scale(.0115)" fill="#9ca0a9"><use href="#r4e"/></g><path d="M83.2 224v5" stroke="#9ca0a9"/><g transform="translate(78.7 244) scale(.0115)" fill="#9ca0a9"><use href="#r44"/></g><path d="M109.5 224v5" stroke="#9ca0a9"/><g transform="translate(107.3 244) scale(.0115)" fill="#9ca0a9"><use href="#r4a"/></g><path d="M135.8 224v5" stroke="#9ca0a9"/><g transform="translate(132.3 244) scale(.0115)" fill="#9ca0a9"><use href="#r46"/></g><path d="M162.1 224v5" stroke="#9ca0a9"/><g transform="translate(156.6 244) scale(.0115)" fill="#9ca0a9"><use href="#r4d"/></g><path d="M195 224v5" stroke="#9ca0a9"/><g transform="translate(190.7 244) scale(.0115)" fill="#9ca0a9"><use href="#r41"/></g><path d="M221.3 224v5" stroke="#9ca0a9"/><g transform="translate(215.8 244) scale(.0115)" fill="#9ca0a9"><use href="#r4d"/></g><path d="M254.2 224v5" stroke="#9ca0a9"/><g transform="translate(251.9 244) scale(.0115)" fill="#9ca0a9"><use href="#r4a"/></g><path d="M280.5 224v5" stroke="#9ca0a9"/><g transform="translate(278.3 244) scale(.0115)" fill="#9ca0a9"><use href="#r4a"/></g><path d="M306.8 224v5" stroke="#9ca0a9"/><g transform="translate(302.5 244) scale(.0115)" fill="#9ca0a9"><use href="#r41"/></g><path d="M339.7 224v5" stroke="#9ca0a9"/><g transform="translate(336.6 244) scale(.0115)" fill="#9ca0a9"><use href="#r53"/></g><path d="M366 224v5" stroke="#9ca0a9"/><g transform="translate(361.4 244) scale(.0115)" fill="#9ca0a9"><use href="#r4f"/></g></svg>